<svg xmlns="http://www.w3.org/2000/svg" xmlns:xlink="http://www.w3.org/1999/xlink" width="840" height="581.04"><rect width="840" height="581.04" rx="5" ry="5" class="a"/><svg y="0%" x="0%"><circle cx="20" cy="20" r="6" fill="#ff5f58"/><circle cx="40" cy="20" r="6" fill="#ffbd2e"/><circle cx="60" cy="20" r="6" fill="#18c132"/></svg><svg height="521.04" viewBox="0 0 80 52.104" width="800" x="15" xmlns="http://www.w3.org/2000/svg" xmlns:xlink="http://www.w3.org/1999/xlink" y="50"><style>@keyframes m{0%{transform:translateX(0)}.4%{transform:translateX(-80px)}6.2%{transform:translateX(-160px)}7.4%{transform:translateX(-240px)}8.7%{transform:translateX(-320px)}9.1%{transform:translateX(-400px)}10.1%{transform:translateX(-480px)}11%{transform:translateX(-560px)}12%{transform:translateX(-640px)}12.4%{transform:translateX(-720px)}13.5%{transform:translateX(-800px)}13.8%{transform:translateX(-880px)}14.8%{transform:translateX(-960px)}15.6%{transform:translateX(-1040px)}16.4%{transform:translateX(-1120px)}17%{transform:translateX(-1200px)}18.3%{transform:translateX(-1280px)}19%{transform:translateX(-1360px)}19.8%{transform:translateX(-1440px)}20.8%{transform:translateX(-1520px)}21.8%{transform:translateX(-1600px)}23.7%{transform:translateX(-1680px)}25.7%{transform:translateX(-1920px)}31.1%{transform:translateX(-2080px)}34.5%{transform:translateX(-2240px)}38.2%{transform:translateX(-2400px)}43.1%{transform:translateX(-2560px)}46.7%{transform:translateX(-2720px)}58%{transform:translateX(-2880px)}68.9%{transform:translateX(-3120px)}69.2%{transform:translateX(-3200px)}to{transform:translateX(-3280px)}}.a{fill:#20232a}.f{fill:#f2f2f2}.g{fill:#fff;font-weight:700}.i{fill:#f2f2f2;text-decoration:underline}</style><g font-size="1.67" font-family="Monaco,Consolas,Menlo,'Bitstream Vera Sans Mono','Powerline Symbols',monospace"><defs><symbol id="1"><text y="1.67" class="f">$</text></symbol><symbol id="2"><text y="1.67" class="f">$</text><text x="2.004" y="1.67" class="f">bump</text></symbol><symbol id="3"><text y="1.67" class="f">$</text><text x="2.004" y="1.67" class="f">bump</text><text x="7.014" y="1.67" class="f">mroth</text></symbol><symbol id="4"><text y="1.67" class="f">$</text><text x="2.004" y="1.67" class="f">bump</text><text x="7.014" y="1.67" class="f">mroth</text><text x="13.026" y="1.67" class="f">scmpuff</text></symbol><symbol id="5"><text y="1.67" class="f">🌻</text><text x="3.006" y="1.67" class="f">Latest</text><text x="10.02" y="1.67" class="f">release</text><text x="18.036" y="1.67" class="f">of</text><text x="21.042" y="1.67" class="g">mroth/scmpuff:</text><text x="37.074" y="1.67" class="g">0.2.1</text><text x="43.086" y="1.67" class="f">(published</text><text x="54.108" y="1.67" class="f">2017</text><text x="59.118" y="1.67" class="f">Feb</text><text x="63.126" y="1.67" class="f">17)</text></symbol><symbol id="6"><text y="1.67" class="f">Changes</text><text x="8.016" y="1.67" class="f">since</text><text x="14.028" y="1.67" class="f">previous</text><text x="23.046" y="1.67" class="f">release:</text></symbol><symbol id="7"><text x="2.004" y="1.67" class="f">-</text><text x="4.008" y="1.67" class="f">Add</text><text x="8.016" y="1.67" class="f">Gitter</text><text x="15.03" y="1.67" class="f">badge</text><text x="21.042" y="1.67" class="f">for</text><text x="25.05" y="1.67" class="f">chat</text><text x="30.06" y="1.67" class="f">support</text></symbol><symbol id="8"><text x="2.004" y="1.67" class="f">-</text><text x="4.008" y="1.67" class="f">Merge</text><text x="10.02" y="1.67" class="f">pull</text><text x="15.03" y="1.67" class="f">request</text><text x="23.046" y="1.67" class="f">#37</text><text x="27.054" y="1.67" class="f">from</text><text x="32.064" y="1.67" class="f">zommerfelds/git-init-issue-36</text></symbol><symbol id="9"><text x="2.004" y="1.67" class="f">-</text><text x="4.008" y="1.67" class="f">fix</text><text x="8.016" y="1.67" class="f">git</text><text x="12.024" y="1.67" class="f">init</text><text x="17.034" y="1.67" class="f">issue</text></symbol><symbol id="10"><text x="2.004" y="1.67" class="f">-</text><text x="4.008" y="1.67" class="f">test</text><text x="9.018" y="1.67" class="f">case</text><text x="14.028" y="1.67" class="f">to</text><text x="17.034" y="1.67" class="f">replicate</text><text x="27.054" y="1.67" class="f">git</text><text x="31.062" y="1.67" class="f">init</text><text x="36.072" y="1.67" class="f">issue</text></symbol><symbol id="11"><text x="2.004" y="1.67" class="f">-</text><text x="4.008" y="1.67" class="f">Merge</text><text x="10.02" y="1.67" class="f">pull</text><text x="15.03" y="1.67" class="f">request</text><text x="23.046" y="1.67" class="f">#29</text><text x="27.054" y="1.67" class="f">from</text><text x="32.064" y="1.67" class="f">mroth/appveyor</text></symbol><symbol id="12"><text x="2.004" y="1.67" class="f">-</text><text x="4.008" y="1.67" class="f">specify</text><text x="12.024" y="1.67" class="f">bundle</text><text x="19.038" y="1.67" class="f">exec</text><text x="24.048" y="1.67" class="f">in</text><text x="27.054" y="1.67" class="f">Rakefile</text></symbol><symbol id="13"><text x="2.004" y="1.67" class="f">-</text><text x="4.008" y="1.67" class="f">bundle</text><text x="11.022" y="1.67" class="f">clean</text><text x="17.034" y="1.67" class="f">before</text><text x="24.048" y="1.67" class="f">cache</text><text x="30.06" y="1.67" class="f">is</text><text x="33.066" y="1.67" class="f">saved</text><text x="39.078" y="1.67" class="f">on</text><text x="42.084" y="1.67" class="f">travis</text></symbol><symbol id="14"><text x="2.004" y="1.67" class="f">-</text><text x="4.008" y="1.67" class="f">verify</text><text x="11.022" y="1.67" class="f">cucumber</text><text x="20.04" y="1.67" class="f">is</text><text x="23.046" y="1.67" class="f">installed</text></symbol><symbol id="15"><text x="2.004" y="1.67" class="f">-</text><text x="4.008" y="1.67" class="f">switch</text><text x="11.022" y="1.67" class="f">travis-ci</text><text x="21.042" y="1.67" class="f">to</text><text x="24.048" y="1.67" class="f">install</text><text x="32.064" y="1.67" class="f">zsh</text><text x="36.072" y="1.67" class="f">via</text><text x="40.08" y="1.67" class="f">apt</text><text x="44.088" y="1.67" class="f">whitelist</text></symbol><symbol id="16"><text x="2.004" y="1.67" class="f">-</text><text x="4.008" y="1.67" class="f">bump</text><text x="9.018" y="1.67" class="f">number</text><text x="16.032" y="1.67" class="f">of</text><text x="19.038" y="1.67" class="f">bundle</text><text x="26.052" y="1.67" class="f">install</text><text x="34.068" y="1.67" class="f">jobs</text></symbol><symbol id="17"><text y="1.67" class="f">...9</text><text x="5.01" y="1.67" class="f">more</text><text x="10.02" y="1.67" class="f">commits,</text><text x="19.038" y="1.67" class="f">https://github.com/mroth/scmpuff/compare/v0.2.1...HEAD</text></symbol><symbol id="18"><text y="1.67" class="f">Use</text><text x="4.008" y="1.67" class="f">the</text><text x="8.016" y="1.67" class="f">arrow</text><text x="14.028" y="1.67" class="f">keys</text><text x="19.038" y="1.67" class="f">to</text><text x="22.044" y="1.67" class="f">navigate:</text><text x="32.064" y="1.67" class="f">↓</text><text x="34.068" y="1.67" class="f">↑</text><text x="36.072" y="1.67" class="f">→</text><text x="38.076" y="1.67" class="f">←</text></symbol><symbol id="19"><text y="1.67" fill="#2176c7">?</text><text x="2.004" y="1.67" class="f">Select</text><text x="9.018" y="1.67" class="f">semver</text><text x="16.032" y="1.67" class="f">increment</text><text x="26.052" y="1.67" class="f">to</text><text x="29.058" y="1.67" class="f">specify</text><text x="37.074" y="1.67" class="f">next</text><text x="42.084" y="1.67" class="f">version:</text></symbol><symbol id="20"><text x="2.004" y="1.67" class="g">▸</text><text x="4.008" y="1.67" class="i">patch</text><text x="10.02" y="1.67" class="i">(0.2.2)</text></symbol><symbol id="21"><text x="4.008" y="1.67" class="f">minor</text><text x="10.02" y="1.67" class="f">(0.3.0)</text></symbol><symbol id="22"><text x="4.008" y="1.67" class="f">major</text><text x="10.02" y="1.67" class="f">(1.0.0)</text></symbol><symbol id="23"><text y="1.67" class="f">patch:</text><text x="7.014" y="1.67" class="f">when</text><text x="12.024" y="1.67" class="f">you</text><text x="16.032" y="1.67" class="f">make</text><text x="21.042" y="1.67" class="f">backwards-compatible</text><text x="42.084" y="1.67" class="f">bug</text><text x="46.092" y="1.67" class="f">fixes.</text></symbol><symbol id="24"><text y="1.67" class="f">j</text></symbol><symbol id="25"><text x="4.008" y="1.67" class="f">patch</text><text x="10.02" y="1.67" class="f">(0.2.2)</text></symbol><symbol id="26"><text x="2.004" y="1.67" class="g">▸</text><text x="4.008" y="1.67" class="i">minor</text><text x="10.02" y="1.67" class="i">(0.3.0)</text></symbol><symbol id="27"><text y="1.67" class="f">minor:</text><text x="7.014" y="1.67" class="f">when</text><text x="12.024" y="1.67" class="f">you</text><text x="16.032" y="1.67" class="f">add</text><text x="20.04" y="1.67" class="f">functionality</text><text x="34.068" y="1.67" class="f">in</text><text x="37.074" y="1.67" class="f">a</text><text x="39.078" y="1.67" class="f">backwards-compatible</text><text x="60.12" y="1.67" class="f">manner.</text></symbol><symbol id="28"><text x="2.004" y="1.67" class="g">▸</text><text x="4.008" y="1.67" class="i">major</text><text x="10.02" y="1.67" class="i">(1.0.0)</text></symbol><symbol id="29"><text y="1.67" class="f">major:</text><text x="7.014" y="1.67" class="f">when</text><text x="12.024" y="1.67" class="f">you</text><text x="16.032" y="1.67" class="f">make</text><text x="21.042" y="1.67" class="f">incompatible</text><text x="34.068" y="1.67" class="f">API</text><text x="38.076" y="1.67" class="f">changes.</text></symbol><symbol id="30"><text y="1.67" class="f">k</text></symbol><symbol id="31"><text y="1.67" fill="#25bc24">✔</text><text x="2.004" y="1.67" class="f">patch</text><text x="8.016" y="1.67" class="f">(0.2.2)</text></symbol><symbol id="32"><text y="1.67" class="f">✨</text><text x="2.004" y="1.67" class="f">Drafting</text><text x="11.022" y="1.67" class="f">new</text><text x="15.03" y="1.67" class="f">release</text><text x="23.046" y="1.67" class="f">on</text><text x="26.052" y="1.67" class="f">GitHub!</text></symbol><symbol id="a"><path fill="transparent" d="M0 0h80v24H0z"/></symbol><symbol id="b"><path fill="#929292" d="M0 0h1.102v2.171H0z"/></symbol></defs><path class="a" d="M0 0h80v52.104H0z"/><g style="animation-duration:12.032191s;animation-iteration-count:infinite;animation-name:m;animation-timing-function:steps(1,end)"><svg width="3360"><svg><use xlink:href="#a"/><use xlink:href="#b" x="-.004"/></svg><svg x="80"><use xlink:href="#a"/><use xlink:href="#b" x="1.996"/><use xlink:href="#1"/></svg><svg x="160"><use xlink:href="#a"/><use xlink:href="#b" x="2.996"/><text y="1.67" class="f">$</text><text x="2.004" y="1.67" class="f">b</text></svg><svg x="240"><use xlink:href="#a"/><use xlink:href="#b" x="3.996"/><text y="1.67" class="f">$</text><text x="2.004" y="1.67" class="f">bu</text></svg><svg x="320"><use xlink:href="#a"/><use xlink:href="#b" x="4.996"/><text y="1.67" class="f">$</text><text x="2.004" y="1.67" class="f">bum</text></svg><svg x="400"><use xlink:href="#a"/><use xlink:href="#b" x="5.996"/><use xlink:href="#2"/></svg><svg x="480"><use xlink:href="#a"/><use xlink:href="#b" x="6.996"/><use xlink:href="#2"/></svg><svg x="560"><use xlink:href="#a"/><use xlink:href="#b" x="7.996"/><text y="1.67" class="f">$</text><text x="2.004" y="1.67" class="f">bump</text><text x="7.014" y="1.67" class="f">m</text></svg><svg x="640"><use xlink:href="#a"/><use xlink:href="#b" x="8.996"/><text y="1.67" class="f">$</text><text x="2.004" y="1.67" class="f">bump</text><text x="7.014" y="1.67" class="f">mr</text></svg><svg x="720"><use xlink:href="#a"/><use xlink:href="#b" x="9.996"/><text y="1.67" class="f">$</text><text x="2.004" y="1.67" class="f">bump</text><text x="7.014" y="1.67" class="f">mro</text></svg><svg x="800"><use xlink:href="#a"/><use xlink:href="#b" x="10.996"/><text y="1.67" class="f">$</text><text x="2.004" y="1.67" class="f">bump</text><text x="7.014" y="1.67" class="f">mrot</text></svg><svg x="880"><use xlink:href="#a"/><use xlink:href="#b" x="11.996"/><use xlink:href="#3"/></svg><svg x="960"><use xlink:href="#a"/><use xlink:href="#b" x="12.996"/><use xlink:href="#3"/></svg><svg x="1040"><use xlink:href="#a"/><use xlink:href="#b" x="13.996"/><text y="1.67" class="f">$</text><text x="2.004" y="1.67" class="f">bump</text><text x="7.014" y="1.67" class="f">mroth</text><text x="13.026" y="1.67" class="f">s</text></svg><svg x="1120"><use xlink:href="#a"/><use xlink:href="#b" x="14.996"/><text y="1.67" class="f">$</text><text x="2.004" y="1.67" class="f">bump</text><text x="7.014" y="1.67" class="f">mroth</text><text x="13.026" y="1.67" class="f">sc</text></svg><svg x="1200"><use xlink:href="#a"/><use xlink:href="#b" x="15.996"/><text y="1.67" class="f">$</text><text x="2.004" y="1.67" class="f">bump</text><text x="7.014" y="1.67" class="f">mroth</text><text x="13.026" y="1.67" class="f">scm</text></svg><svg x="1280"><use xlink:href="#a"/><use xlink:href="#b" x="16.996"/><text y="1.67" class="f">$</text><text x="2.004" y="1.67" class="f">bump</text><text x="7.014" y="1.67" class="f">mroth</text><text x="13.026" y="1.67" class="f">scmp</text></svg><svg x="1360"><use xlink:href="#a"/><use xlink:href="#b" x="17.996"/><text y="1.67" class="f">$</text><text x="2.004" y="1.67" class="f">bump</text><text x="7.014" y="1.67" class="f">mroth</text><text x="13.026" y="1.67" class="f">scmpu</text></svg><svg x="1440"><use xlink:href="#a"/><use xlink:href="#b" x="18.996"/><text y="1.67" class="f">$</text><text x="2.004" y="1.67" class="f">bump</text><text x="7.014" y="1.67" class="f">mroth</text><text x="13.026" y="1.67" class="f">scmpuf</text></svg><svg x="1520"><use xlink:href="#a"/><use xlink:href="#b" x="19.996"/><use xlink:href="#4"/></svg><svg x="1600"><use xlink:href="#a"/><use xlink:href="#b" x="-.004" y="2.146"/><use xlink:href="#4"/></svg><svg x="1680"><use xlink:href="#a"/><use xlink:href="#b" x="-.004" y="4.317"/><use xlink:href="#4"/><use xlink:href="#5" y="2.171"/></svg><svg x="1760"><use xlink:href="#a"/><use xlink:href="#b" x="-.004" y="36.882"/><use xlink:href="#4"/><use xlink:href="#5" y="2.171"/><use xlink:href="#6" y="4.342"/><use xlink:href="#7" y="8.684"/><use xlink:href="#8" y="10.855"/><use xlink:href="#9" y="13.026"/><use xlink:href="#10" y="15.197"/><use xlink:href="#11" y="17.368"/><use xlink:href="#12" y="19.539"/><use xlink:href="#13" y="21.71"/><use xlink:href="#14" y="23.881"/><use xlink:href="#15" y="26.052"/><use xlink:href="#16" y="28.223"/><use xlink:href="#17" y="32.565"/></svg><svg x="1840"><use xlink:href="#a"/><use xlink:href="#4"/><use xlink:href="#5" y="2.171"/><use xlink:href="#6" y="4.342"/><use xlink:href="#7" y="8.684"/><use xlink:href="#8" y="10.855"/><use xlink:href="#9" y="13.026"/><use xlink:href="#10" y="15.197"/><use xlink:href="#11" y="17.368"/><use xlink:href="#12" y="19.539"/><use xlink:href="#13" y="21.71"/><use xlink:href="#14" y="23.881"/><use xlink:href="#15" y="26.052"/><use xlink:href="#16" y="28.223"/><use xlink:href="#17" y="32.565"/></svg><svg x="1920"><use xlink:href="#a"/><use xlink:href="#4"/><use xlink:href="#5" y="2.171"/><use xlink:href="#6" y="4.342"/><use xlink:href="#7" y="8.684"/><use xlink:href="#8" y="10.855"/><use xlink:href="#9" y="13.026"/><use xlink:href="#10" y="15.197"/><use xlink:href="#11" y="17.368"/><use xlink:href="#12" y="19.539"/><use xlink:href="#13" y="21.71"/><use xlink:href="#14" y="23.881"/><use xlink:href="#15" y="26.052"/><use xlink:href="#16" y="28.223"/><use xlink:href="#17" y="32.565"/><use xlink:href="#18" y="36.907"/><use xlink:href="#19" y="39.078"/><use xlink:href="#20" y="41.249"/><use xlink:href="#21" y="43.42"/><use xlink:href="#22" y="45.591"/><use xlink:href="#23" y="47.762"/></svg><svg x="2000"><use xlink:href="#a"/><use xlink:href="#4"/><use xlink:href="#5" y="2.171"/><use xlink:href="#6" y="4.342"/><use xlink:href="#7" y="8.684"/><use xlink:href="#8" y="10.855"/><use xlink:href="#9" y="13.026"/><use xlink:href="#10" y="15.197"/><use xlink:href="#11" y="17.368"/><use xlink:href="#12" y="19.539"/><use xlink:href="#13" y="21.71"/><use xlink:href="#14" y="23.881"/><use xlink:href="#15" y="26.052"/><use xlink:href="#16" y="28.223"/><use xlink:href="#17" y="32.565"/><use xlink:href="#18" y="36.907"/><use xlink:href="#19" y="39.078"/><use xlink:href="#20" y="41.249"/><use xlink:href="#21" y="43.42"/><use xlink:href="#22" y="45.591"/><use xlink:href="#23" y="47.762"/><use xlink:href="#24" y="49.933"/></svg><svg x="2080"><use xlink:href="#a"/><use xlink:href="#4"/><use xlink:href="#5" y="2.171"/><use xlink:href="#6" y="4.342"/><use xlink:href="#7" y="8.684"/><use xlink:href="#8" y="10.855"/><use xlink:href="#9" y="13.026"/><use xlink:href="#10" y="15.197"/><use xlink:href="#11" y="17.368"/><use xlink:href="#12" y="19.539"/><use xlink:href="#13" y="21.71"/><use xlink:href="#14" y="23.881"/><use xlink:href="#15" y="26.052"/><use xlink:href="#16" y="28.223"/><use xlink:href="#17" y="32.565"/><use xlink:href="#18" y="36.907"/><use xlink:href="#19" y="39.078"/><use xlink:href="#25" y="41.249"/><use xlink:href="#26" y="43.42"/><use xlink:href="#22" y="45.591"/><use xlink:href="#27" y="47.762"/></svg><svg x="2160"><use xlink:href="#a"/><use xlink:href="#4"/><use xlink:href="#5" y="2.171"/><use xlink:href="#6" y="4.342"/><use xlink:href="#7" y="8.684"/><use xlink:href="#8" y="10.855"/><use xlink:href="#9" y="13.026"/><use xlink:href="#10" y="15.197"/><use xlink:href="#11" y="17.368"/><use xlink:href="#12" y="19.539"/><use xlink:href="#13" y="21.71"/><use xlink:href="#14" y="23.881"/><use xlink:href="#15" y="26.052"/><use xlink:href="#16" y="28.223"/><use xlink:href="#17" y="32.565"/><use xlink:href="#18" y="36.907"/><use xlink:href="#19" y="39.078"/><use xlink:href="#25" y="41.249"/><use xlink:href="#26" y="43.42"/><use xlink:href="#22" y="45.591"/><use xlink:href="#27" y="47.762"/><use xlink:href="#24" y="49.933"/></svg><svg x="2240"><use xlink:href="#a"/><use xlink:href="#4"/><use xlink:href="#5" y="2.171"/><use xlink:href="#6" y="4.342"/><use xlink:href="#7" y="8.684"/><use xlink:href="#8" y="10.855"/><use xlink:href="#9" y="13.026"/><use xlink:href="#10" y="15.197"/><use xlink:href="#11" y="17.368"/><use xlink:href="#12" y="19.539"/><use xlink:href="#13" y="21.71"/><use xlink:href="#14" y="23.881"/><use xlink:href="#15" y="26.052"/><use xlink:href="#16" y="28.223"/><use xlink:href="#17" y="32.565"/><use xlink:href="#18" y="36.907"/><use xlink:href="#19" y="39.078"/><use xlink:href="#25" y="41.249"/><use xlink:href="#21" y="43.42"/><use xlink:href="#28" y="45.591"/><use xlink:href="#29" y="47.762"/></svg><svg x="2320"><use xlink:href="#a"/><use xlink:href="#4"/><use xlink:href="#5" y="2.171"/><use xlink:href="#6" y="4.342"/><use xlink:href="#7" y="8.684"/><use xlink:href="#8" y="10.855"/><use xlink:href="#9" y="13.026"/><use xlink:href="#10" y="15.197"/><use xlink:href="#11" y="17.368"/><use xlink:href="#12" y="19.539"/><use xlink:href="#13" y="21.71"/><use xlink:href="#14" y="23.881"/><use xlink:href="#15" y="26.052"/><use xlink:href="#16" y="28.223"/><use xlink:href="#17" y="32.565"/><use xlink:href="#18" y="36.907"/><use xlink:href="#19" y="39.078"/><use xlink:href="#25" y="41.249"/><use xlink:href="#21" y="43.42"/><use xlink:href="#28" y="45.591"/><use xlink:href="#29" y="47.762"/><use xlink:href="#30" y="49.933"/></svg><svg x="2400"><use xlink:href="#a"/><use xlink:href="#4"/><use xlink:href="#5" y="2.171"/><use xlink:href="#6" y="4.342"/><use xlink:href="#7" y="8.684"/><use xlink:href="#8" y="10.855"/><use xlink:href="#9" y="13.026"/><use xlink:href="#10" y="15.197"/><use xlink:href="#11" y="17.368"/><use xlink:href="#12" y="19.539"/><use xlink:href="#13" y="21.71"/><use xlink:href="#14" y="23.881"/><use xlink:href="#15" y="26.052"/><use xlink:href="#16" y="28.223"/><use xlink:href="#17" y="32.565"/><use xlink:href="#18" y="36.907"/><use xlink:href="#19" y="39.078"/><use xlink:href="#25" y="41.249"/><use xlink:href="#26" y="43.42"/><use xlink:href="#22" y="45.591"/><use xlink:href="#27" y="47.762"/></svg><svg x="2480"><use xlink:href="#a"/><use xlink:href="#4"/><use xlink:href="#5" y="2.171"/><use xlink:href="#6" y="4.342"/><use xlink:href="#7" y="8.684"/><use xlink:href="#8" y="10.855"/><use xlink:href="#9" y="13.026"/><use xlink:href="#10" y="15.197"/><use xlink:href="#11" y="17.368"/><use xlink:href="#12" y="19.539"/><use xlink:href="#13" y="21.71"/><use xlink:href="#14" y="23.881"/><use xlink:href="#15" y="26.052"/><use xlink:href="#16" y="28.223"/><use xlink:href="#17" y="32.565"/><use xlink:href="#18" y="36.907"/><use xlink:href="#19" y="39.078"/><use xlink:href="#25" y="41.249"/><use xlink:href="#26" y="43.42"/><use xlink:href="#22" y="45.591"/><use xlink:href="#27" y="47.762"/><use xlink:href="#30" y="49.933"/></svg><svg x="2560"><use xlink:href="#a"/><use xlink:href="#4"/><use xlink:href="#5" y="2.171"/><use xlink:href="#6" y="4.342"/><use xlink:href="#7" y="8.684"/><use xlink:href="#8" y="10.855"/><use xlink:href="#9" y="13.026"/><use xlink:href="#10" y="15.197"/><use xlink:href="#11" y="17.368"/><use xlink:href="#12" y="19.539"/><use xlink:href="#13" y="21.71"/><use xlink:href="#14" y="23.881"/><use xlink:href="#15" y="26.052"/><use xlink:href="#16" y="28.223"/><use xlink:href="#17" y="32.565"/><use xlink:href="#18" y="36.907"/><use xlink:href="#19" y="39.078"/><use xlink:href="#20" y="41.249"/><use xlink:href="#21" y="43.42"/><use xlink:href="#22" y="45.591"/><use xlink:href="#23" y="47.762"/></svg><svg x="2640"><use xlink:href="#a"/><use xlink:href="#4"/><use xlink:href="#5" y="2.171"/><use xlink:href="#6" y="4.342"/><use xlink:href="#7" y="8.684"/><use xlink:href="#8" y="10.855"/><use xlink:href="#9" y="13.026"/><use xlink:href="#10" y="15.197"/><use xlink:href="#11" y="17.368"/><use xlink:href="#12" y="19.539"/><use xlink:href="#13" y="21.71"/><use xlink:href="#14" y="23.881"/><use xlink:href="#15" y="26.052"/><use xlink:href="#16" y="28.223"/><use xlink:href="#17" y="32.565"/><use xlink:href="#18" y="36.907"/><use xlink:href="#19" y="39.078"/><use xlink:href="#20" y="41.249"/><use xlink:href="#21" y="43.42"/><use xlink:href="#22" y="45.591"/><use xlink:href="#23" y="47.762"/><use xlink:href="#24" y="49.933"/></svg><svg x="2720"><use xlink:href="#a"/><use xlink:href="#4"/><use xlink:href="#5" y="2.171"/><use xlink:href="#6" y="4.342"/><use xlink:href="#7" y="8.684"/><use xlink:href="#8" y="10.855"/><use xlink:href="#9" y="13.026"/><use xlink:href="#10" y="15.197"/><use xlink:href="#11" y="17.368"/><use xlink:href="#12" y="19.539"/><use xlink:href="#13" y="21.71"/><use xlink:href="#14" y="23.881"/><use xlink:href="#15" y="26.052"/><use xlink:href="#16" y="28.223"/><use xlink:href="#17" y="32.565"/><use xlink:href="#18" y="36.907"/><use xlink:href="#19" y="39.078"/><use xlink:href="#25" y="41.249"/><use xlink:href="#26" y="43.42"/><use xlink:href="#22" y="45.591"/><use xlink:href="#27" y="47.762"/></svg><svg x="2800"><use xlink:href="#a"/><use xlink:href="#4"/><use xlink:href="#5" y="2.171"/><use xlink:href="#6" y="4.342"/><use xlink:href="#7" y="8.684"/><use xlink:href="#8" y="10.855"/><use xlink:href="#9" y="13.026"/><use xlink:href="#10" y="15.197"/><use xlink:href="#11" y="17.368"/><use xlink:href="#12" y="19.539"/><use xlink:href="#13" y="21.71"/><use xlink:href="#14" y="23.881"/><use xlink:href="#15" y="26.052"/><use xlink:href="#16" y="28.223"/><use xlink:href="#17" y="32.565"/><use xlink:href="#18" y="36.907"/><use xlink:href="#19" y="39.078"/><use xlink:href="#25" y="41.249"/><use xlink:href="#26" y="43.42"/><use xlink:href="#22" y="45.591"/><use xlink:href="#27" y="47.762"/><use xlink:href="#30" y="49.933"/></svg><svg x="2880"><use xlink:href="#a"/><use xlink:href="#4"/><use xlink:href="#5" y="2.171"/><use xlink:href="#6" y="4.342"/><use xlink:href="#7" y="8.684"/><use xlink:href="#8" y="10.855"/><use xlink:href="#9" y="13.026"/><use xlink:href="#10" y="15.197"/><use xlink:href="#11" y="17.368"/><use xlink:href="#12" y="19.539"/><use xlink:href="#13" y="21.71"/><use xlink:href="#14" y="23.881"/><use xlink:href="#15" y="26.052"/><use xlink:href="#16" y="28.223"/><use xlink:href="#17" y="32.565"/><use xlink:href="#18" y="36.907"/><use xlink:href="#19" y="39.078"/><use xlink:href="#20" y="41.249"/><use xlink:href="#21" y="43.42"/><use xlink:href="#22" y="45.591"/><use xlink:href="#23" y="47.762"/></svg><svg x="2960"><use xlink:href="#a"/><use xlink:href="#4"/><use xlink:href="#5" y="2.171"/><use xlink:href="#6" y="4.342"/><use xlink:href="#7" y="8.684"/><use xlink:href="#8" y="10.855"/><use xlink:href="#9" y="13.026"/><use xlink:href="#10" y="15.197"/><use xlink:href="#11" y="17.368"/><use xlink:href="#12" y="19.539"/><use xlink:href="#13" y="21.71"/><use xlink:href="#14" y="23.881"/><use xlink:href="#15" y="26.052"/><use xlink:href="#16" y="28.223"/><use xlink:href="#17" y="32.565"/><use xlink:href="#18" y="36.907"/><use xlink:href="#19" y="39.078"/><use xlink:href="#20" y="41.249"/><use xlink:href="#21" y="43.42"/><use xlink:href="#22" y="45.591"/><use xlink:href="#23" y="47.762"/></svg><svg x="3040"><use xlink:href="#a"/><use xlink:href="#b" x="-.004" y="39.053"/><use xlink:href="#4"/><use xlink:href="#5" y="2.171"/><use xlink:href="#6" y="4.342"/><use xlink:href="#7" y="8.684"/><use xlink:href="#8" y="10.855"/><use xlink:href="#9" y="13.026"/><use xlink:href="#10" y="15.197"/><use xlink:href="#11" y="17.368"/><use xlink:href="#12" y="19.539"/><use xlink:href="#13" y="21.71"/><use xlink:href="#14" y="23.881"/><use xlink:href="#15" y="26.052"/><use xlink:href="#16" y="28.223"/><use xlink:href="#17" y="32.565"/><use xlink:href="#31" y="36.907"/></svg><svg x="3120"><use xlink:href="#a"/><use xlink:href="#b" x="-.004" y="41.224"/><use xlink:href="#4"/><use xlink:href="#5" y="2.171"/><use xlink:href="#6" y="4.342"/><use xlink:href="#7" y="8.684"/><use xlink:href="#8" y="10.855"/><use xlink:href="#9" y="13.026"/><use xlink:href="#10" y="15.197"/><use xlink:href="#11" y="17.368"/><use xlink:href="#12" y="19.539"/><use xlink:href="#13" y="21.71"/><use xlink:href="#14" y="23.881"/><use xlink:href="#15" y="26.052"/><use xlink:href="#16" y="28.223"/><use xlink:href="#17" y="32.565"/><use xlink:href="#31" y="36.907"/><use xlink:href="#32" y="39.078"/></svg><svg x="3200"><use xlink:href="#a"/><use xlink:href="#b" x="1.996" y="41.224"/><use xlink:href="#4"/><use xlink:href="#5" y="2.171"/><use xlink:href="#6" y="4.342"/><use xlink:href="#7" y="8.684"/><use xlink:href="#8" y="10.855"/><use xlink:href="#9" y="13.026"/><use xlink:href="#10" y="15.197"/><use xlink:href="#11" y="17.368"/><use xlink:href="#12" y="19.539"/><use xlink:href="#13" y="21.71"/><use xlink:href="#14" y="23.881"/><use xlink:href="#15" y="26.052"/><use xlink:href="#16" y="28.223"/><use xlink:href="#17" y="32.565"/><use xlink:href="#31" y="36.907"/><use xlink:href="#32" y="39.078"/><use xlink:href="#1" y="41.249"/></svg><svg x="3280"><use xlink:href="#a"/><use xlink:href="#b" x="-.004" y="43.395"/><use xlink:href="#4"/><use xlink:href="#5" y="2.171"/><use xlink:href="#6" y="4.342"/><use xlink:href="#7" y="8.684"/><use xlink:href="#8" y="10.855"/><use xlink:href="#9" y="13.026"/><use xlink:href="#10" y="15.197"/><use xlink:href="#11" y="17.368"/><use xlink:href="#12" y="19.539"/><use xlink:href="#13" y="21.71"/><use xlink:href="#14" y="23.881"/><use xlink:href="#15" y="26.052"/><use xlink:href="#16" y="28.223"/><use xlink:href="#17" y="32.565"/><use xlink:href="#31" y="36.907"/><use xlink:href="#32" y="39.078"/><text y="42.919" class="f">$</text><text x="2.004" y="42.919" class="f">exit</text></svg></svg></g></g></svg></svg>