<svg xmlns="http://www.w3.org/2000/svg" xmlns:xlink="http://www.w3.org/1999/xlink" width="860" height="581.04"><rect width="860" height="581.04" rx="5" ry="5" class="a"/><svg y="0%" x="0%"><circle cx="20" cy="20" r="6" fill="#ff5f58"/><circle cx="40" cy="20" r="6" fill="#ffbd2e"/><circle cx="60" cy="20" r="6" fill="#18c132"/></svg><svg height="521.04" viewBox="0 0 82 52.104" width="820" x="15" xmlns="http://www.w3.org/2000/svg" xmlns:xlink="http://www.w3.org/1999/xlink" y="50"><style>@keyframes m{0%{transform:translateX(0)}.5%{transform:translateX(-82px)}7.8%{transform:translateX(-164px)}9%{transform:translateX(-246px)}10.7%{transform:translateX(-328px)}11.8%{transform:translateX(-410px)}12.6%{transform:translateX(-492px)}14.1%{transform:translateX(-574px)}15.2%{transform:translateX(-656px)}15.7%{transform:translateX(-738px)}17.7%{transform:translateX(-820px)}18.9%{transform:translateX(-902px)}20.1%{transform:translateX(-984px)}22.6%{transform:translateX(-1066px)}24%{transform:translateX(-1148px)}24.5%{transform:translateX(-1230px)}25.6%{transform:translateX(-1312px)}26.7%{transform:translateX(-1394px)}27.8%{transform:translateX(-1476px)}29.1%{transform:translateX(-1558px)}31.7%{transform:translateX(-1640px)}33.9%{transform:translateX(-1886px)}38.3%{transform:translateX(-2050px)}39.7%{transform:translateX(-2214px)}43%{transform:translateX(-2296px)}45.7%{transform:translateX(-2460px)}50.7%{transform:translateX(-2542px)}57.8%{transform:translateX(-2706px)}73.8%{transform:translateX(-2870px)}74.2%{transform:translateX(-2952px)}to{transform:translateX(-3034px)}}.a{fill:#20232a}.f{fill:#f2f2f2}.g{fill:#fff;font-weight:700}.i{fill:#f2f2f2;text-decoration:underline}</style><g font-size="1.67" font-family="Monaco,Consolas,Menlo,'Bitstream Vera Sans Mono','Powerline Symbols',monospace"><defs><symbol id="1"><text y="1.67" class="f">$</text></symbol><symbol id="2"><text y="1.67" class="f">$</text><text x="2.004" y="1.67" class="f">bump</text></symbol><symbol id="3"><text y="1.67" class="f">$</text><text x="2.004" y="1.67" class="f">bump</text><text x="7.014" y="1.67" class="f">mroth</text></symbol><symbol id="4"><text y="1.67" class="f">$</text><text x="2.004" y="1.67" class="f">bump</text><text x="7.014" y="1.67" class="f">mroth</text><text x="13.026" y="1.67" class="f">scmpuff</text></symbol><symbol id="5"><text y="1.67" class="f">🌻</text><text x="3.006" y="1.67" class="f">Current</text><text x="11.022" y="1.67" class="f">version</text><text x="19.038" y="1.67" class="f">of</text><text x="22.044" y="1.67" class="g">mroth/scmpuff:</text><text x="38.076" y="1.67" class="g">0.2.1</text><text x="44.088" y="1.67" class="f">(released</text><text x="54.108" y="1.67" class="f">2017</text><text x="59.118" y="1.67" class="f">Feb</text><text x="63.126" y="1.67" class="f">17)</text></symbol><symbol id="6"><text y="1.67" class="f">Use</text><text x="4.008" y="1.67" class="f">the</text><text x="8.016" y="1.67" class="f">arrow</text><text x="14.028" y="1.67" class="f">keys</text><text x="19.038" y="1.67" class="f">to</text><text x="22.044" y="1.67" class="f">navigate:</text><text x="32.064" y="1.67" class="f">↓</text><text x="34.068" y="1.67" class="f">↑</text><text x="36.072" y="1.67" class="f">→</text><text x="38.076" y="1.67" class="f">←</text></symbol><symbol id="7"><text y="1.67" fill="#2176c7">?</text><text x="2.004" y="1.67" class="f">Select</text><text x="9.018" y="1.67" class="f">semver</text><text x="16.032" y="1.67" class="f">increment</text><text x="26.052" y="1.67" class="f">to</text><text x="29.058" y="1.67" class="f">specify</text><text x="37.074" y="1.67" class="f">new</text><text x="41.082" y="1.67" class="f">version:</text></symbol><symbol id="8"><text x="2.004" y="1.67" class="g">▸</text><text x="4.008" y="1.67" class="i">patch</text><text x="10.02" y="1.67" class="i">(0.2.2)</text></symbol><symbol id="9"><text x="4.008" y="1.67" class="f">minor</text><text x="10.02" y="1.67" class="f">(0.3.0)</text></symbol><symbol id="10"><text x="4.008" y="1.67" class="f">major</text><text x="10.02" y="1.67" class="f">(1.0.0)</text></symbol><symbol id="11"><text x="4.008" y="1.67" class="f">patch</text><text x="10.02" y="1.67" class="f">(0.2.2)</text></symbol><symbol id="12"><text x="2.004" y="1.67" class="g">▸</text><text x="4.008" y="1.67" class="i">minor</text><text x="10.02" y="1.67" class="i">(0.3.0)</text></symbol><symbol id="13"><text x="2.004" y="1.67" class="g">▸</text><text x="4.008" y="1.67" class="i">major</text><text x="10.02" y="1.67" class="i">(1.0.0)</text></symbol><symbol id="14"><text y="1.67" fill="#25bc24">✔</text><text x="2.004" y="1.67" class="f">patch</text><text x="8.016" y="1.67" class="f">(0.2.2)</text></symbol><symbol id="15"><text y="1.67" class="f">✨</text><text x="2.004" y="1.67" class="f">Opening</text><text x="10.02" y="1.67" class="f">https://github.com/mroth/scmpuff/releases/new?tag=v0.2.2&amp;title=v0.2.2</text></symbol><symbol id="a"><path fill="transparent" d="M0 0h82v24H0z"/></symbol><symbol id="b"><path fill="#929292" d="M0 0h1.102v2.171H0z"/></symbol></defs><path class="a" d="M0 0h82v52.104H0z"/><g style="animation-duration:9.913345s;animation-iteration-count:infinite;animation-name:m;animation-timing-function:steps(1,end)"><svg width="3116"><svg><use xlink:href="#a"/><use xlink:href="#b" x="-.004"/></svg><svg x="82"><use xlink:href="#a"/><use xlink:href="#b" x="1.996"/><use xlink:href="#1"/></svg><svg x="164"><use xlink:href="#a"/><use xlink:href="#b" x="2.996"/><text y="1.67" class="f">$</text><text x="2.004" y="1.67" class="f">b</text></svg><svg x="246"><use xlink:href="#a"/><use xlink:href="#b" x="3.996"/><text y="1.67" class="f">$</text><text x="2.004" y="1.67" class="f">bu</text></svg><svg x="328"><use xlink:href="#a"/><use xlink:href="#b" x="4.996"/><text y="1.67" class="f">$</text><text x="2.004" y="1.67" class="f">bum</text></svg><svg x="410"><use xlink:href="#a"/><use xlink:href="#b" x="5.996"/><use xlink:href="#2"/></svg><svg x="492"><use xlink:href="#a"/><use xlink:href="#b" x="6.996"/><use xlink:href="#2"/></svg><svg x="574"><use xlink:href="#a"/><use xlink:href="#b" x="7.996"/><text y="1.67" class="f">$</text><text x="2.004" y="1.67" class="f">bump</text><text x="7.014" y="1.67" class="f">m</text></svg><svg x="656"><use xlink:href="#a"/><use xlink:href="#b" x="8.996"/><text y="1.67" class="f">$</text><text x="2.004" y="1.67" class="f">bump</text><text x="7.014" y="1.67" class="f">mr</text></svg><svg x="738"><use xlink:href="#a"/><use xlink:href="#b" x="9.996"/><text y="1.67" class="f">$</text><text x="2.004" y="1.67" class="f">bump</text><text x="7.014" y="1.67" class="f">mro</text></svg><svg x="820"><use xlink:href="#a"/><use xlink:href="#b" x="10.996"/><text y="1.67" class="f">$</text><text x="2.004" y="1.67" class="f">bump</text><text x="7.014" y="1.67" class="f">mrot</text></svg><svg x="902"><use xlink:href="#a"/><use xlink:href="#b" x="11.996"/><use xlink:href="#3"/></svg><svg x="984"><use xlink:href="#a"/><use xlink:href="#b" x="12.996"/><use xlink:href="#3"/></svg><svg x="1066"><use xlink:href="#a"/><use xlink:href="#b" x="13.996"/><text y="1.67" class="f">$</text><text x="2.004" y="1.67" class="f">bump</text><text x="7.014" y="1.67" class="f">mroth</text><text x="13.026" y="1.67" class="f">s</text></svg><svg x="1148"><use xlink:href="#a"/><use xlink:href="#b" x="14.996"/><text y="1.67" class="f">$</text><text x="2.004" y="1.67" class="f">bump</text><text x="7.014" y="1.67" class="f">mroth</text><text x="13.026" y="1.67" class="f">sc</text></svg><svg x="1230"><use xlink:href="#a"/><use xlink:href="#b" x="15.996"/><text y="1.67" class="f">$</text><text x="2.004" y="1.67" class="f">bump</text><text x="7.014" y="1.67" class="f">mroth</text><text x="13.026" y="1.67" class="f">scm</text></svg><svg x="1312"><use xlink:href="#a"/><use xlink:href="#b" x="16.996"/><text y="1.67" class="f">$</text><text x="2.004" y="1.67" class="f">bump</text><text x="7.014" y="1.67" class="f">mroth</text><text x="13.026" y="1.67" class="f">scmp</text></svg><svg x="1394"><use xlink:href="#a"/><use xlink:href="#b" x="17.996"/><text y="1.67" class="f">$</text><text x="2.004" y="1.67" class="f">bump</text><text x="7.014" y="1.67" class="f">mroth</text><text x="13.026" y="1.67" class="f">scmpu</text></svg><svg x="1476"><use xlink:href="#a"/><use xlink:href="#b" x="18.996"/><text y="1.67" class="f">$</text><text x="2.004" y="1.67" class="f">bump</text><text x="7.014" y="1.67" class="f">mroth</text><text x="13.026" y="1.67" class="f">scmpuf</text></svg><svg x="1558"><use xlink:href="#a"/><use xlink:href="#b" x="19.996"/><use xlink:href="#4"/></svg><svg x="1640"><use xlink:href="#a"/><use xlink:href="#b" x="-.004" y="2.146"/><use xlink:href="#4"/></svg><svg x="1722"><use xlink:href="#a"/><use xlink:href="#b" x="-.004" y="4.317"/><use xlink:href="#4"/><use xlink:href="#5" y="2.171"/></svg><svg x="1804"><use xlink:href="#a"/><use xlink:href="#4"/><use xlink:href="#5" y="2.171"/></svg><svg x="1886"><use xlink:href="#a"/><use xlink:href="#4"/><use xlink:href="#5" y="2.171"/><use xlink:href="#6" y="4.342"/><use xlink:href="#7" y="6.513"/><use xlink:href="#8" y="8.684"/><use xlink:href="#9" y="10.855"/><use xlink:href="#10" y="13.026"/></svg><svg x="1968"><use xlink:href="#a"/><use xlink:href="#4"/><use xlink:href="#5" y="2.171"/><use xlink:href="#6" y="4.342"/><use xlink:href="#7" y="6.513"/><use xlink:href="#11" y="8.684"/><use xlink:href="#12" y="10.855"/><use xlink:href="#10" y="13.026"/></svg><svg x="2050"><use xlink:href="#a"/><use xlink:href="#4"/><use xlink:href="#5" y="2.171"/><use xlink:href="#6" y="4.342"/><use xlink:href="#7" y="6.513"/><use xlink:href="#11" y="8.684"/><use xlink:href="#12" y="10.855"/><use xlink:href="#10" y="13.026"/></svg><svg x="2132"><use xlink:href="#a"/><use xlink:href="#4"/><use xlink:href="#5" y="2.171"/><use xlink:href="#6" y="4.342"/><use xlink:href="#7" y="6.513"/><use xlink:href="#11" y="8.684"/><use xlink:href="#9" y="10.855"/><use xlink:href="#13" y="13.026"/></svg><svg x="2214"><use xlink:href="#a"/><use xlink:href="#4"/><use xlink:href="#5" y="2.171"/><use xlink:href="#6" y="4.342"/><use xlink:href="#7" y="6.513"/><use xlink:href="#11" y="8.684"/><use xlink:href="#9" y="10.855"/><use xlink:href="#13" y="13.026"/></svg><svg x="2296"><use xlink:href="#a"/><use xlink:href="#4"/><use xlink:href="#5" y="2.171"/><use xlink:href="#6" y="4.342"/><use xlink:href="#7" y="6.513"/><use xlink:href="#11" y="8.684"/><use xlink:href="#12" y="10.855"/><use xlink:href="#10" y="13.026"/></svg><svg x="2378"><use xlink:href="#a"/><use xlink:href="#4"/><use xlink:href="#5" y="2.171"/><use xlink:href="#6" y="4.342"/><use xlink:href="#7" y="6.513"/><use xlink:href="#8" y="8.684"/><use xlink:href="#9" y="10.855"/><use xlink:href="#10" y="13.026"/></svg><svg x="2460"><use xlink:href="#a"/><use xlink:href="#4"/><use xlink:href="#5" y="2.171"/><use xlink:href="#6" y="4.342"/><use xlink:href="#7" y="6.513"/><use xlink:href="#8" y="8.684"/><use xlink:href="#9" y="10.855"/><use xlink:href="#10" y="13.026"/></svg><svg x="2542"><use xlink:href="#a"/><use xlink:href="#4"/><use xlink:href="#5" y="2.171"/><use xlink:href="#6" y="4.342"/><use xlink:href="#7" y="6.513"/><use xlink:href="#11" y="8.684"/><use xlink:href="#12" y="10.855"/><use xlink:href="#10" y="13.026"/></svg><svg x="2624"><use xlink:href="#a"/><use xlink:href="#4"/><use xlink:href="#5" y="2.171"/><use xlink:href="#6" y="4.342"/><use xlink:href="#7" y="6.513"/><use xlink:href="#8" y="8.684"/><use xlink:href="#9" y="10.855"/><use xlink:href="#10" y="13.026"/></svg><svg x="2706"><use xlink:href="#a"/><use xlink:href="#4"/><use xlink:href="#5" y="2.171"/><use xlink:href="#6" y="4.342"/><use xlink:href="#7" y="6.513"/><use xlink:href="#8" y="8.684"/><use xlink:href="#9" y="10.855"/><use xlink:href="#10" y="13.026"/></svg><svg x="2788"><use xlink:href="#a"/><use xlink:href="#4"/><use xlink:href="#5" y="2.171"/><use xlink:href="#6" y="4.342"/><use xlink:href="#7" y="6.513"/><use xlink:href="#8" y="8.684"/><use xlink:href="#9" y="10.855"/><use xlink:href="#10" y="13.026"/></svg><svg x="2870"><use xlink:href="#a"/><use xlink:href="#b" x="-.004" y="8.659"/><use xlink:href="#4"/><use xlink:href="#5" y="2.171"/><use xlink:href="#14" y="4.342"/><use xlink:href="#15" y="6.513"/></svg><svg x="2952"><use xlink:href="#a"/><use xlink:href="#b" x="1.996" y="8.659"/><use xlink:href="#4"/><use xlink:href="#5" y="2.171"/><use xlink:href="#14" y="4.342"/><use xlink:href="#15" y="6.513"/><use xlink:href="#1" y="8.684"/></svg><svg x="3034"><use xlink:href="#a"/><use xlink:href="#b" x="-.004" y="10.83"/><use xlink:href="#4"/><use xlink:href="#5" y="2.171"/><use xlink:href="#14" y="4.342"/><use xlink:href="#15" y="6.513"/><text y="10.354" class="f">$</text><text x="2.004" y="10.354" class="f">exit</text></svg></svg></g></g></svg></svg>